PathFileType	4	(X/Y/Z)	Kaydara																																																																																																																																																																																																																												
DataRate	CameraRate	NumFrames	NumMarkers	Units	OrigDataRate	OrigDataStartFrame	OrigNumFrames																																																																																																																																																																																																																								
60	60	4	74	mm	60	2112	203																																																																																																																																																																																																																								
Frame#	Time	N_lasi			N_rasi			N_rpsi			N_lpsi			N_fneck			N_bneck			N_fhead			N_rhead			N_lhead			N_rshld			N_relbtop			N_relbext			N_relblow			N_rwrext			N_rwrtop			N_rwrlow			N_lshld			N_lelblow			N_lelbtop			N_lwrext			N_lwrtop			N_lwrlow			N_rtopleg			N_ltopleg			N_rkneefr			N_rkneebk			N_rkneeis			N_lkneefr			N_lknssbk			N_lkneeis			N_rankfr			N_rankis			N_rankbk			N_lankfr			N_lankbk			N_lankis			D_lasi			D_rasi			D_lpsi			D_fneck			D_bneck			D_fhead			D_rhead			D_lhead			D_rshld			D_relbtop			D_relbext			D_relblow			D_rwrext			D_rwrtop			D_rwrlow			D_lshld			D_lelbext			D_lelblow			D_lelbtop			D_lwrext			D_lwrtop			D_lwrlow			D_rtopleg			D_ltopleg			D_rkneefr			D_rkneebk			D_rkneeis			D_lkneefr			D_lknssbk			D_lkneeis			D_rankfr			D_rankis			D_rankbk			D_lankfr			D_lankbk			D_lankis			D_rpsi			N_lelbext		
		X1	Y1	Z1	X2	Y2	Z2	X3	Y3	Z3	X4	Y4	Z4	X5	Y5	Z5	X6	Y6	Z6	X7	Y7	Z7	X8	Y8	Z8	X9	Y9	Z9	X10	Y10	Z10	X11	Y11	Z11	X12	Y12	Z12	X13	Y13	Z13	X14	Y14	Z14	X15	Y15	Z15	X16	Y16	Z16	X17	Y17	Z17	X18	Y18	Z18	X19	Y19	Z19	X20	Y20	Z20	X21	Y21	Z21	X22	Y22	Z22	X23	Y23	Z23	X24	Y24	Z24	X25	Y25	Z25	X26	Y26	Z26	X27	Y27	Z27	X28	Y28	Z28	X29	Y29	Z29	X30	Y30	Z30	X31	Y31	Z31	X32	Y32	Z32	X33	Y33	Z33	X34	Y34	Z34	X35	Y35	Z35	X36	Y36	Z36	X37	Y37	Z37	X38	Y38	Z38	X39	Y39	Z39	X40	Y40	Z40	X41	Y41	Z41	X42	Y42	Z42	X43	Y43	Z43	X44	Y44	Z44	X45	Y45	Z45	X46	Y46	Z46	X47	Y47	Z47	X48	Y48	Z48	X49	Y49	Z49	X50	Y50	Z50	X51	Y51	Z51	X52	Y52	Z52	X53	Y53	Z53	X54	Y54	Z54	X55	Y55	Z55	X56	Y56	Z56	X57	Y57	Z57	X58	Y58	Z58	X59	Y59	Z59	X60	Y60	Z60	X61	Y61	Z61	X62	Y62	Z62	X63	Y63	Z63	X64	Y64	Z64	X65	Y65	Z65	X66	Y66	Z66	X67	Y67	Z67	X68	Y68	Z68	X69	Y69	Z69	X70	Y70	Z70	X71	Y71	Z71	X72	Y72	Z72	X73	Y73	Z73	X74	Y74	Z74
																																																																																																																																																																																																																															
102	35.183	-521.37405	1267.26936	-73.70233	-499.74136	1286.80252	-303.73238	-238.59598	1255.04845	-354.90288	-276.03245	1238.12256	3.80463	-391.91765	1613.15598	-163.42167	-229.42442	1666.93329	-141.519	-444.36966	1794.93286	-165.03925	-245.24395	1776.11481	-202.43069	-312.32264	1773.12439	-59.26096	-223.96173	1657.52914	-256.26223	-324.17076	1813.15979	-435.17246	-404.05201	1780.74799	-404.12056	-326.14258	1834.62158	-344.43153	-464.29104	2129.69116	-473.77758	-460.47089	2139.46167	-426.35609	-498.24951	2118.86124	-403.4441	-232.64721	1620.25711	-9.61611	-313.01298	1791.42197	125.08031	-332.14069	1748.35052	201.1359	-420.59593	2071.9902	278.7697	-396.93657	2090.48233	241.88	-437.71206	2079.43451	207.12727	-391.98597	1097.11182	-443.80817	-367.56466	1055.3756	44.88408	-425.29301	562.85564	-260.10647	-318.59913	579.29016	-327.31594	-366.15234	565.49679	-165.48775	-378.30734	539.77901	-99.90511	-251.79735	555.92537	-40.72587	-253.33282	547.57019	-190.5546	-295.81659	139.727	-270.90626	-298.39397	154.64767	-190.85775	-216.48537	141.22673	-215.09132	-331.70456	193.17757	-118.11234	-258.29163	185.65245	-75.85356	-294.29163	164.65245	-159.85356	-462.38277	1040.67642	1738.93051	-425.91373	1057.00569	1453.68591	-263.29842	1130.28671	1744.15771	-437.85412	1564.15573	1593.68195	-302.201	1587.99561	1599.13132	-461.50311	1784.19571	1590.81894	-306.95362	1720.10391	1513.20572	-312.20541	1724.8465	1668.15399	-381.84441	1489.1243	1391.6423	-261.50463	1160.39291	1363.82858	-298.21278	1142.36763	1426.27548	-344.57333	1167.52632	1336.88431	-323.91357	914.20105	1362.62161	-378.89427	918.89465	1342.49954	-395.33501	933.2579	1392.55096	-388.16586	1500.16632	1823.8974	-323.03455	1161.51428	1788.423	-345.44689	1196.1512	1877.00974	-271.3475	1178.80615	1847.29172	-336.04969	935.42892	1870.0766	-379.30584	940.83832	1869.54865	-390.48634	948.90785	1820.44098	-326.00418	1004.07196	1408.51685	-315.71175	1007.48817	1804.24728	-380.49358	454.77684	1449.28085	-280.71218	490.86609	1421.71875	-288.48513	458.56186	1542.47177	-363.57224	448.07121	1771.07681	-251.01078	486.57887	1787.34146	-322.61227	444.08611	1679.55566	-325.19814	129.78363	1417.84988	-296.02411	126.81018	1482.97745	-245.02218	128.60804	1418.02689	-324.68296	134.77799	1792.35794	-251.9174	125.37815	1806.15067	-295.16855	124.26934	1733.07022	-234.15571	1144.29512	1526.67816	-404.60609	1741.57776	148.13895
103	35.2	-520.90569	1267.31842	-72.77933	-500.42324	1287.00409	-302.99667	-239.41925	1255.15015	-354.96021	-275.3598	1237.93152	3.80032	-392.02896	1613.06244	-163.34787	-229.53573	1666.83975	-141.44522	-444.62376	1795.46539	-164.98854	-247.03178	1776.4386	-198.28543	-313.40858	1772.43408	-58.24796	-223.86848	1657.50595	-256.31939	-324.42791	1813.54584	-434.50829	-404.34429	1781.2442	-403.19466	-325.94257	1834.6965	-343.76091	-464.11774	2130.81406	-470.55622	-459.84455	2140.22827	-423.15697	-497.53769	2119.7847	-400.01568	-231.48748	1620.2562	-10.58141	-310.78674	1791.62491	122.87719	-330.6609	1749.68643	199.43188	-418.07838	2077.6001	264.79506	-393.71662	2094.51859	227.82782	-433.45501	2082.77145	192.40898	-393.22319	1097.14806	-443.11443	-366.90208	1055.41496	45.22658	-425.47501	562.79202	-259.664	-318.96877	579.26849	-327.09	-365.05707	565.08766	-165.91448	-378.16868	539.77116	-99.49285	-251.56168	555.88356	-40.65483	-253.4564	547.53059	-190.43507	-295.91177	139.71142	-270.80854	-298.42323	154.61893	-190.78646	-216.56296	141.23998	-215.04671	-331.63242	193.15233	-117.98248	-258.18842	185.56791	-75.86398	-294.18842	164.56791	-159.86398	-462.12856	1040.67665	1738.90717	-425.78568	1056.95732	1453.67081	-263.20042	1130.25826	1744.07089	-437.72869	1564.16199	1593.6937	-302.10598	1588.02322	1599.05945	-461.47827	1784.1803	1590.68161	-306.78673	1720.04578	1513.15048	-312.12038	1724.88297	1668.08517	-381.76224	1489.11545	1391.64749	-261.23594	1160.41	1363.41583	-298.14987	1142.51282	1425.9938	-344.45816	1167.5824	1336.62918	-323.64479	914.24393	1362.21024	-378.66817	918.9341	1342.14294	-395.02056	933.35152	1392.10083	-388.06862	1500.14618	1823.91754	-323.0209	1161.60851	1788.48267	-345.14317	1196.14136	1877.05078	-271.10401	1178.91159	1847.25449	-334.97059	935.88684	1870.94772	-378.83549	940.78476	1869.6106	-390.19131	948.99178	1820.44708	-325.93208	1004.07173	1408.51227	-315.61934	1007.50587	1804.27322	-380.34267	454.8624	1449.23599	-280.58758	490.80769	1421.78116	-288.35608	458.56953	1542.53021	-363.45093	448.07343	1771.05789	-250.74389	486.675	1787.4617	-322.51583	444.09451	1679.56543	-325.18494	129.8069	1417.86057	-296.01065	126.81059	1482.99271	-244.91947	128.61171	1418.01483	-324.63047	134.76603	1792.40067	-251.85528	125.38527	1806.13708	-295.12375	124.21405	1733.10532	-234.08743	1144.34868	1526.73004	-402.75303	1742.65228	145.62214
104	35.217	-520.45979	1267.42714	-71.95606	-501.08398	1287.28241	-302.30911	-240.29547	1255.2816	-355.05493	-274.77594	1237.78946	3.89378	-392.16125	1613.02902	-163.33014	-229.66803	1666.80634	-141.42748	-444.96708	1796.06308	-165.1428	-247.92566	1776.44653	-195.67369	-314.99786	1771.45996	-57.41241	-223.67857	1657.49771	-256.38254	-324.67594	1814.03244	-433.93623	-404.44103	1781.89423	-402.11082	-325.61863	1834.90707	-343.09341	-463.62667	2131.97433	-467.38613	-459.21402	2141.30829	-420.10273	-496.73473	2120.6076	-396.82743	-230.38544	1620.38269	-11.30987	-308.99258	1791.6655	120.95957	-329.16622	1750.63538	198.07171	-415.47634	2082.45605	251.19328	-389.9334	2097.76459	214.0649	-429.18434	2085.1062	178.33319	-394.29436	1097.20314	-442.53132	-366.24947	1055.43869	45.64044	-425.7	562.74273	-259.2951	-319.30653	579.26464	-326.978	-365.12901	565.03468	-165.67829	-378.0743	539.74476	-99.19768	-251.4325	555.85155	-40.56781	-253.59056	547.4696	-190.35656	-296.01954	139.73768	-270.73023	-298.42285	154.58115	-190.70942	-216.6576	141.26076	-215.0515	-331.53854	193.09887	-117.87041	-258.04379	185.53116	-75.9022	-294.04379	164.53116	-159.9022	-461.89907	1040.66391	1738.93219	-425.73555	1056.84532	1453.41736	-262.8323	1130.32005	1743.95111	-437.60303	1564.14154	1593.68164	-302.01931	1588.00949	1599.06433	-461.3739	1784.18076	1590.5043	-306.58497	1720.00992	1513.12027	-312.03426	1724.94781	1667.95624	-381.66271	1489.12216	1391.64093	-261.03125	1160.52086	1362.9512	-298.08441	1142.7317	1425.69641	-344.27391	1167.69226	1336.39404	-323.39783	914.30161	1361.89148	-378.41667	918.95432	1341.88202	-394.72721	933.41942	1391.66153	-387.92732	1500.19577	1823.92761	-322.99915	1161.68961	1788.62244	-344.88197	1196.13342	1877.07794	-270.80173	1178.9888	1847.3909	-334.72664	935.44212	1870.49896	-378.27217	940.71121	1869.63776	-389.86473	948.9743	1820.35812	-325.86006	1004.0715	1408.50769	-315.52692	1007.52365	1804.29947	-380.24399	454.86473	1449.19571	-280.41092	490.82832	1421.69159	-288.302	458.50357	1542.4765	-363.33778	448.09959	1771.07208	-250.70957	486.52939	1787.21832	-322.37404	444.09492	1679.59198	-325.15137	129.8056	1417.82684	-295.92136	126.84188	1483.02841	-244.91398	128.57664	1418.00705	-324.57928	134.82765	1792.36053	-251.84328	125.33786	1806.13678	-295.10122	124.22824	1733.08014	-233.91232	1144.31618	1526.79718	-400.67646	1743.56232	143.4487
105	35.233	-519.9728	1267.66182	-71.20054	-501.70597	1287.70493	-301.5535	-241.14908	1255.47867	-355.12493	-274.19334	1237.69875	3.91959	-392.55627	1612.95532	-163.21997	-230.06302	1666.73279	-141.3173	-445.51487	1796.6066	-165.30174	-248.19077	1776.34232	-194.68153	-316.22618	1770.75043	-56.80915	-223.36311	1657.56668	-256.58627	-324.90238	1814.53613	-433.29803	-404.57024	1782.52045	-401.03271	-325.17212	1835.29419	-342.4501	-463.30864	2133.23105	-464.61903	-458.73184	2142.17422	-417.12013	-496.00903	2121.39023	-394.09111	-229.0464	1620.31921	-11.96161	-306.89491	1791.75583	119.27299	-327.69283	1751.69495	196.66527	-413.02052	2086.45447	238.63422	-386.6301	2100.39612	201.79544	-425.19669	2086.92902	165.60955	-395.16136	1097.39319	-441.97117	-365.7143	1055.57289	46.01318	-425.94173	562.72247	-258.97287	-319.67644	579.25682	-326.86619	-365.10166	564.97883	-165.53583	-377.93762	539.69223	-98.99121	-251.20178	555.80612	-40.61342	-253.62743	547.43393	-190.36201	-296.16602	139.69995	-270.63917	-298.40162	154.51178	-190.66643	-216.61909	141.24402	-215.13636	-331.45763	193.09166	-117.84016	-257.95418	185.49843	-75.94664	-293.95418	164.49843	-159.94664	-461.66622	1040.65147	1738.95416	-425.5677	1056.80237	1453.36014	-263.07751	1130.65399	1743.37082	-437.52048	1564.13376	1593.70056	-301.87914	1588.01987	1598.99521	-461.24706	1784.19189	1590.42557	-306.44064	1719.96811	1513.05344	-311.90531	1724.95789	1667.92145	-381.58527	1489.13513	1391.5921	-260.77078	1160.57159	1362.659	-297.995	1142.90558	1425.4985	-344.09748	1167.77222	1336.18561	-323.16048	914.35951	1361.64413	-378.09868	918.99696	1341.59348	-394.63085	933.51631	1391.40961	-387.62337	1499.88678	1823.77518	-323.0085	1161.70448	1788.84354	-344.63608	1196.06384	1877.15012	-270.54632	1178.99559	1847.64526	-334.25247	935.24132	1870.40558	-377.94704	940.65659	1869.48593	-388.83102	948.30963	1820.73608	-325.78796	1004.07127	1408.50327	-315.43447	1007.54135	1804.32571	-380.11868	454.88403	1449.14032	-280.35072	490.81478	1421.68167	-288.19378	458.52486	1542.45712	-363.1955	448.11092	1771.07239	-250.54901	486.51348	1787.19025	-322.21199	444.11438	1679.52713	-325.12566	129.80485	1417.80731	-295.93611	126.79794	1482.97363	-244.7962	128.57067	1417.89246	-324.55425	134.8283	1792.3172	-251.82657	125.32977	1806.15997	-295.07065	124.22874	1733.07175	-233.73947	1144.35791	1526.85074	-398.99746	1744.24576	141.48401
